<?xml version="1.0" encoding="UTF-8" standalone="no"?>
<!DOCTYPE svg PUBLIC "-//W3C//DTD SVG 1.1//EN"
 "http://www.w3.org/Graphics/SVG/1.1/DTD/svg11.dtd">
<!-- Generated by graphviz version 9.0.0 (20230911.1827)
 -->
<!-- Title: test_graph Pages: 1 -->
<svg width="2175pt" height="570pt"
 viewBox="0.00 0.00 2175.17 569.82" xmlns="http://www.w3.org/2000/svg" xmlns:xlink="http://www.w3.org/1999/xlink">
<g id="graph0" class="graph" transform="scale(1 1) rotate(0) translate(4 565.82)">
<title>test_graph</title>
<polygon fill="white" stroke="none" points="-4,4 -4,-565.82 2171.17,-565.82 2171.17,4 -4,4"/>
<!-- NvSIPLCDICommon.h -->
<g id="node1" class="node">
<title>NvSIPLCDICommon.h</title>
<ellipse fill="none" stroke="#ff0000" cx="1778.67" cy="-251.82" rx="121.71" ry="18"/>
<text text-anchor="middle" x="1778.67" y="-247.14" font-family="Times,serif" font-size="14.00">NvSIPLCDICommon.h</text>
</g>
<!-- INvSIPLDeviceInterfaceProvider.hpp -->
<g id="node2" class="node">
<title>INvSIPLDeviceInterfaceProvider.hpp</title>
<ellipse fill="none" stroke="#ff0000" cx="452.15" cy="-339.82" rx="195.89" ry="18"/>
<text text-anchor="middle" x="452.15" y="-335.14" font-family="Times,serif" font-size="14.00">INvSIPLDeviceInterfaceProvider.hpp</text>
</g>
<!-- nvscibuf.h -->
<g id="node3" class="node">
<title>nvscibuf.h</title>
<ellipse fill="none" stroke="#0000c0" cx="1136.19" cy="-55.82" rx="62.26" ry="18"/>
<text text-anchor="middle" x="1136.19" y="-51.14" font-family="Times,serif" font-size="14.00">nvscibuf.h</text>
</g>
<!-- nvscistream.h -->
<g id="node4" class="node">
<title>nvscistream.h</title>
<ellipse fill="none" stroke="#0000c0" cx="1136.19" cy="-163.82" rx="81.72" ry="18"/>
<text text-anchor="middle" x="1136.19" y="-159.14" font-family="Times,serif" font-size="14.00">nvscistream.h</text>
</g>
<!-- nvscisync.h -->
<g id="node5" class="node">
<title>nvscisync.h</title>
<ellipse fill="none" stroke="#0000c0" cx="1136.19" cy="-109.82" rx="69.1" ry="18"/>
<text text-anchor="middle" x="1136.19" y="-105.14" font-family="Times,serif" font-size="14.00">nvscisync.h</text>
</g>
<!-- INvSiplControlAuto.hpp -->
<g id="node6" class="node">
<title>INvSiplControlAuto.hpp</title>
<ellipse fill="none" stroke="black" cx="1136.19" cy="-385.82" rx="131.18" ry="18"/>
<text text-anchor="middle" x="1136.19" y="-381.14" font-family="Times,serif" font-size="14.00">INvSiplControlAuto.hpp</text>
</g>
<!-- NvSIPLCommon.hpp -->
<g id="node7" class="node">
<title>NvSIPLCommon.hpp</title>
<ellipse fill="none" stroke="black" cx="2051.77" cy="-370.82" rx="115.39" ry="18"/>
<text text-anchor="middle" x="2051.77" y="-366.14" font-family="Times,serif" font-size="14.00">NvSIPLCommon.hpp</text>
</g>
<!-- INvSiplControlAuto.hpp&#45;&gt;NvSIPLCommon.hpp -->
<g id="edge1" class="edge">
<title>INvSiplControlAuto.hpp&#45;&gt;NvSIPLCommon.hpp</title>
<path fill="none" stroke="black" d="M1266.63,-383.69C1441.75,-380.82 1752.09,-375.72 1925.2,-372.88"/>
<polygon fill="black" stroke="black" points="1925.2,-376.38 1935.14,-372.72 1925.08,-369.38 1925.2,-376.38"/>
</g>
<!-- NvSIPLControlAutoDef.hpp -->
<g id="node8" class="node">
<title>NvSIPLControlAutoDef.hpp</title>
<ellipse fill="none" stroke="black" cx="1472.43" cy="-299.82" rx="148.54" ry="18"/>
<text text-anchor="middle" x="1472.43" y="-295.14" font-family="Times,serif" font-size="14.00">NvSIPLControlAutoDef.hpp</text>
</g>
<!-- INvSiplControlAuto.hpp&#45;&gt;NvSIPLControlAutoDef.hpp -->
<g id="edge2" class="edge">
<title>INvSiplControlAuto.hpp&#45;&gt;NvSIPLControlAutoDef.hpp</title>
<path fill="none" stroke="black" d="M1200.06,-369.64C1255.67,-355.33 1336.91,-334.43 1396,-319.23"/>
<polygon fill="black" stroke="black" points="1396.86,-322.62 1405.67,-316.74 1395.11,-315.84 1396.86,-322.62"/>
</g>
<!-- NvSIPLControlAutoDef.hpp&#45;&gt;NvSIPLCDICommon.h -->
<g id="edge18" class="edge">
<title>NvSIPLControlAutoDef.hpp&#45;&gt;NvSIPLCDICommon.h</title>
<path fill="none" stroke="black" d="M1565.12,-285.35C1602.31,-279.48 1645.24,-272.71 1682.75,-266.79"/>
<polygon fill="black" stroke="black" points="1682.86,-270.32 1692.19,-265.3 1681.77,-263.41 1682.86,-270.32"/>
</g>
<!-- NvSIPLISPStat.hpp -->
<g id="node14" class="node">
<title>NvSIPLISPStat.hpp</title>
<ellipse fill="none" stroke="black" cx="1778.67" cy="-305.82" rx="109.61" ry="18"/>
<text text-anchor="middle" x="1778.67" y="-301.14" font-family="Times,serif" font-size="14.00">NvSIPLISPStat.hpp</text>
</g>
<!-- NvSIPLControlAutoDef.hpp&#45;&gt;NvSIPLISPStat.hpp -->
<g id="edge17" class="edge">
<title>NvSIPLControlAutoDef.hpp&#45;&gt;NvSIPLISPStat.hpp</title>
<path fill="none" stroke="black" d="M1619.31,-302.7C1632.41,-302.95 1645.56,-303.21 1658.39,-303.47"/>
<polygon fill="black" stroke="black" points="1657.99,-306.96 1668.05,-303.66 1658.12,-299.96 1657.99,-306.96"/>
</g>
<!-- NvSIPLCamera.hpp -->
<g id="node9" class="node">
<title>NvSIPLCamera.hpp</title>
<ellipse fill="none" stroke="black" cx="110.13" cy="-285.82" rx="110.13" ry="18"/>
<text text-anchor="middle" x="110.13" y="-281.14" font-family="Times,serif" font-size="14.00">NvSIPLCamera.hpp</text>
</g>
<!-- NvSIPLCamera.hpp&#45;&gt;INvSIPLDeviceInterfaceProvider.hpp -->
<g id="edge8" class="edge">
<title>NvSIPLCamera.hpp&#45;&gt;INvSIPLDeviceInterfaceProvider.hpp</title>
<path fill="none" stroke="black" d="M182.25,-299.73C205.77,-304.15 232.1,-308.9 256.26,-312.82 278.65,-316.45 302.53,-320.01 325.62,-323.3"/>
<polygon fill="black" stroke="black" points="325,-326.75 335.39,-324.68 325.98,-319.81 325,-326.75"/>
</g>
<!-- NvSIPLCamera.hpp&#45;&gt;nvscibuf.h -->
<g id="edge11" class="edge">
<title>NvSIPLCamera.hpp&#45;&gt;nvscibuf.h</title>
<path fill="none" stroke="black" d="M118.24,-267.66C135.12,-227.38 181.83,-131.02 256.26,-91.82 532.5,53.65 928.02,-10.25 1076.18,-41.9"/>
<polygon fill="black" stroke="black" points="1075.26,-45.28 1085.77,-43.98 1076.74,-38.44 1075.26,-45.28"/>
</g>
<!-- NvSIPLCamera.hpp&#45;&gt;nvscistream.h -->
<g id="edge10" class="edge">
<title>NvSIPLCamera.hpp&#45;&gt;nvscistream.h</title>
<path fill="none" stroke="black" d="M147.82,-268.56C176.63,-255.83 218.13,-239.31 256.26,-230.82 537.98,-168.07 881.65,-161.41 1043.08,-162.26"/>
<polygon fill="black" stroke="black" points="1042.85,-165.75 1052.87,-162.32 1042.9,-158.75 1042.85,-165.75"/>
</g>
<!-- NvSIPLCamera.hpp&#45;&gt;nvscisync.h -->
<g id="edge9" class="edge">
<title>NvSIPLCamera.hpp&#45;&gt;nvscisync.h</title>
<path fill="none" stroke="black" d="M127.35,-267.91C152.18,-241.85 202.45,-194.38 256.26,-173.82 537.74,-66.27 906.32,-86.32 1061.4,-101.3"/>
<polygon fill="black" stroke="black" points="1060.83,-104.76 1071.13,-102.26 1061.52,-97.79 1060.83,-104.76"/>
</g>
<!-- NvSIPLCamera.hpp&#45;&gt;INvSiplControlAuto.hpp -->
<g id="edge6" class="edge">
<title>NvSIPLCamera.hpp&#45;&gt;INvSiplControlAuto.hpp</title>
<path fill="none" stroke="black" d="M134.7,-303.8C162.17,-323.56 209.76,-354.18 256.26,-366.82 391.67,-403.61 785.97,-397.35 997.42,-390.91"/>
<polygon fill="black" stroke="black" points="997.51,-394.41 1007.4,-390.6 997.29,-387.41 997.51,-394.41"/>
</g>
<!-- NvSIPLCamera.hpp&#45;&gt;NvSIPLCommon.hpp -->
<g id="edge3" class="edge">
<title>NvSIPLCamera.hpp&#45;&gt;NvSIPLCommon.hpp</title>
<path fill="none" stroke="black" d="M121.93,-304.02C142.95,-337.54 192.9,-408.38 256.26,-438.82 481,-546.78 565.95,-485.82 815.27,-485.82 815.27,-485.82 815.27,-485.82 1473.43,-485.82 1665.47,-485.82 1886.64,-423.86 1990.72,-390.9"/>
<polygon fill="black" stroke="black" points="1991.72,-394.25 2000.18,-387.88 1989.59,-387.59 1991.72,-394.25"/>
</g>
<!-- NvSIPLPlatformCfg.hpp -->
<g id="node10" class="node">
<title>NvSIPLPlatformCfg.hpp</title>
<ellipse fill="none" stroke="black" cx="816.27" cy="-435.82" rx="132.23" ry="18"/>
<text text-anchor="middle" x="816.27" y="-431.14" font-family="Times,serif" font-size="14.00">NvSIPLPlatformCfg.hpp</text>
</g>
<!-- NvSIPLCamera.hpp&#45;&gt;NvSIPLPlatformCfg.hpp -->
<g id="edge4" class="edge">
<title>NvSIPLCamera.hpp&#45;&gt;NvSIPLPlatformCfg.hpp</title>
<path fill="none" stroke="black" d="M126.85,-303.67C151.42,-330.16 201.79,-379 256.26,-399.82 401.65,-455.39 583.74,-455.54 699.81,-447.86"/>
<polygon fill="black" stroke="black" points="699.94,-451.36 709.68,-447.17 699.46,-444.37 699.94,-451.36"/>
</g>
<!-- NvSIPLPipelineMgr.hpp -->
<g id="node11" class="node">
<title>NvSIPLPipelineMgr.hpp</title>
<ellipse fill="none" stroke="black" cx="452.15" cy="-285.82" rx="131.7" ry="18"/>
<text text-anchor="middle" x="452.15" y="-281.14" font-family="Times,serif" font-size="14.00">NvSIPLPipelineMgr.hpp</text>
</g>
<!-- NvSIPLCamera.hpp&#45;&gt;NvSIPLPipelineMgr.hpp -->
<g id="edge5" class="edge">
<title>NvSIPLCamera.hpp&#45;&gt;NvSIPLPipelineMgr.hpp</title>
<path fill="none" stroke="black" d="M220.59,-285.82C248.73,-285.82 279.43,-285.82 308.97,-285.82"/>
<polygon fill="black" stroke="black" points="308.71,-289.32 318.71,-285.82 308.71,-282.32 308.71,-289.32"/>
</g>
<!-- NvSIPLClient.hpp -->
<g id="node12" class="node">
<title>NvSIPLClient.hpp</title>
<ellipse fill="none" stroke="black" cx="816.27" cy="-233.82" rx="101.19" ry="18"/>
<text text-anchor="middle" x="816.27" y="-229.14" font-family="Times,serif" font-size="14.00">NvSIPLClient.hpp</text>
</g>
<!-- NvSIPLCamera.hpp&#45;&gt;NvSIPLClient.hpp -->
<g id="edge7" class="edge">
<title>NvSIPLCamera.hpp&#45;&gt;NvSIPLClient.hpp</title>
<path fill="none" stroke="black" d="M178.4,-271.29C202.81,-266.55 230.68,-261.76 256.26,-258.82 410.57,-241.1 590.18,-235.76 703.3,-234.25"/>
<polygon fill="black" stroke="black" points="703.24,-237.75 713.2,-234.13 703.16,-230.75 703.24,-237.75"/>
</g>
<!-- NvSIPLDeviceBlockInfo.hpp -->
<g id="node15" class="node">
<title>NvSIPLDeviceBlockInfo.hpp</title>
<ellipse fill="none" stroke="black" cx="1136.19" cy="-439.82" rx="151.7" ry="18"/>
<text text-anchor="middle" x="1136.19" y="-435.14" font-family="Times,serif" font-size="14.00">NvSIPLDeviceBlockInfo.hpp</text>
</g>
<!-- NvSIPLPlatformCfg.hpp&#45;&gt;NvSIPLDeviceBlockInfo.hpp -->
<g id="edge26" class="edge">
<title>NvSIPLPlatformCfg.hpp&#45;&gt;NvSIPLDeviceBlockInfo.hpp</title>
<path fill="none" stroke="black" d="M948.42,-437.47C956.71,-437.57 965.1,-437.68 973.51,-437.78"/>
<polygon fill="black" stroke="black" points="973.41,-441.28 983.45,-437.91 973.5,-434.28 973.41,-441.28"/>
</g>
<!-- NvSIPLPipelineMgr.hpp&#45;&gt;NvSIPLCommon.hpp -->
<g id="edge22" class="edge">
<title>NvSIPLPipelineMgr.hpp&#45;&gt;NvSIPLCommon.hpp</title>
<path fill="none" stroke="black" d="M544.26,-299.05C586.67,-304.75 637.84,-310.98 684.04,-314.82 1140.07,-352.73 1683.93,-365.3 1925.03,-369.19"/>
<polygon fill="black" stroke="black" points="1924.71,-372.69 1934.76,-369.35 1924.82,-365.69 1924.71,-372.69"/>
</g>
<!-- NvSIPLPipelineMgr.hpp&#45;&gt;NvSIPLPlatformCfg.hpp -->
<g id="edge24" class="edge">
<title>NvSIPLPipelineMgr.hpp&#45;&gt;NvSIPLPlatformCfg.hpp</title>
<path fill="none" stroke="black" d="M580.49,-290.2C603.91,-294.63 627.44,-301.72 648.04,-312.82 669.39,-324.32 665.56,-338.12 684.04,-353.82 710.91,-376.65 744.71,-397.62 771.29,-412.64"/>
<polygon fill="black" stroke="black" points="769.32,-415.55 779.76,-417.36 772.73,-409.44 769.32,-415.55"/>
</g>
<!-- NvSIPLPipelineMgr.hpp&#45;&gt;NvSIPLClient.hpp -->
<g id="edge23" class="edge">
<title>NvSIPLPipelineMgr.hpp&#45;&gt;NvSIPLClient.hpp</title>
<path fill="none" stroke="black" d="M544.53,-272.7C599.81,-264.76 670,-254.68 725.07,-246.77"/>
<polygon fill="black" stroke="black" points="725.32,-250.27 734.72,-245.38 724.33,-243.34 725.32,-250.27"/>
</g>
<!-- NvSIPLInterrupts.hpp -->
<g id="node17" class="node">
<title>NvSIPLInterrupts.hpp</title>
<ellipse fill="none" stroke="black" cx="816.27" cy="-287.82" rx="122.76" ry="18"/>
<text text-anchor="middle" x="816.27" y="-283.14" font-family="Times,serif" font-size="14.00">NvSIPLInterrupts.hpp</text>
</g>
<!-- NvSIPLPipelineMgr.hpp&#45;&gt;NvSIPLInterrupts.hpp -->
<g id="edge25" class="edge">
<title>NvSIPLPipelineMgr.hpp&#45;&gt;NvSIPLInterrupts.hpp</title>
<path fill="none" stroke="black" d="M584.14,-286.54C616.02,-286.72 650.15,-286.91 682.13,-287.08"/>
<polygon fill="black" stroke="black" points="681.81,-290.58 691.83,-287.14 681.85,-283.58 681.81,-290.58"/>
</g>
<!-- NvSIPLClient.hpp&#45;&gt;NvSIPLCDICommon.h -->
<g id="edge14" class="edge">
<title>NvSIPLClient.hpp&#45;&gt;NvSIPLCDICommon.h</title>
<path fill="none" stroke="black" d="M917.33,-235.69C1091.86,-238.96 1451.82,-245.71 1646.23,-249.35"/>
<polygon fill="black" stroke="black" points="1646.07,-252.85 1656.13,-249.54 1646.2,-245.85 1646.07,-252.85"/>
</g>
<!-- NvSIPLClient.hpp&#45;&gt;nvscistream.h -->
<g id="edge16" class="edge">
<title>NvSIPLClient.hpp&#45;&gt;nvscistream.h</title>
<path fill="none" stroke="black" d="M879.56,-219.44C911,-212.24 949.75,-203.46 984.5,-195.82 1010.67,-190.07 1039.43,-183.92 1064.75,-178.56"/>
<polygon fill="black" stroke="black" points="1065.2,-182.04 1074.27,-176.55 1063.76,-175.19 1065.2,-182.04"/>
</g>
<!-- NvSIPLClient.hpp&#45;&gt;nvscisync.h -->
<g id="edge15" class="edge">
<title>NvSIPLClient.hpp&#45;&gt;nvscisync.h</title>
<path fill="none" stroke="black" d="M841.69,-215.95C873.11,-193.86 930.14,-156.75 984.5,-136.82 1008.41,-128.05 1035.54,-122.06 1060.12,-118"/>
<polygon fill="black" stroke="black" points="1060.38,-121.51 1069.72,-116.5 1059.3,-114.59 1060.38,-121.51"/>
</g>
<!-- NvSIPLClient.hpp&#45;&gt;NvSIPLCommon.hpp -->
<g id="edge12" class="edge">
<title>NvSIPLClient.hpp&#45;&gt;NvSIPLCommon.hpp</title>
<path fill="none" stroke="black" d="M904.13,-224.63C1128.21,-202.27 1720.78,-151.98 1900.38,-224.82 1959.41,-248.76 2008.03,-308.22 2032.87,-343.43"/>
<polygon fill="black" stroke="black" points="2029.83,-345.18 2038.38,-351.43 2035.59,-341.2 2029.83,-345.18"/>
</g>
<!-- NvSIPLISPStructs.hpp -->
<g id="node13" class="node">
<title>NvSIPLISPStructs.hpp</title>
<ellipse fill="none" stroke="black" cx="1136.19" cy="-293.82" rx="125.39" ry="18"/>
<text text-anchor="middle" x="1136.19" y="-289.14" font-family="Times,serif" font-size="14.00">NvSIPLISPStructs.hpp</text>
</g>
<!-- NvSIPLClient.hpp&#45;&gt;NvSIPLISPStructs.hpp -->
<g id="edge13" class="edge">
<title>NvSIPLClient.hpp&#45;&gt;NvSIPLISPStructs.hpp</title>
<path fill="none" stroke="black" d="M887.04,-246.99C934.11,-255.87 996.61,-267.66 1047.11,-277.19"/>
<polygon fill="black" stroke="black" points="1046.39,-280.62 1056.86,-279.03 1047.68,-273.74 1046.39,-280.62"/>
</g>
<!-- NvSIPLISPStructs.hpp&#45;&gt;NvSIPLControlAutoDef.hpp -->
<g id="edge21" class="edge">
<title>NvSIPLISPStructs.hpp&#45;&gt;NvSIPLControlAutoDef.hpp</title>
<path fill="none" stroke="black" d="M1260.7,-296.04C1277.94,-296.34 1295.85,-296.67 1313.62,-296.99"/>
<polygon fill="black" stroke="black" points="1313.39,-300.48 1323.45,-297.16 1313.51,-293.48 1313.39,-300.48"/>
</g>
<!-- NvSIPLISPStat.hpp&#45;&gt;NvSIPLCommon.hpp -->
<g id="edge20" class="edge">
<title>NvSIPLISPStat.hpp&#45;&gt;NvSIPLCommon.hpp</title>
<path fill="none" stroke="black" d="M1842.21,-320.81C1882.11,-330.38 1934.05,-342.83 1976.12,-352.92"/>
<polygon fill="black" stroke="black" points="1975.13,-356.28 1985.67,-355.21 1976.76,-349.47 1975.13,-356.28"/>
</g>
<!-- NvSIPLCapStructs.h -->
<g id="node16" class="node">
<title>NvSIPLCapStructs.h</title>
<ellipse fill="none" stroke="black" cx="1472.43" cy="-439.82" rx="114.87" ry="18"/>
<text text-anchor="middle" x="1472.43" y="-435.14" font-family="Times,serif" font-size="14.00">NvSIPLCapStructs.h</text>
</g>
<!-- NvSIPLDeviceBlockInfo.hpp&#45;&gt;NvSIPLCapStructs.h -->
<g id="edge19" class="edge">
<title>NvSIPLDeviceBlockInfo.hpp&#45;&gt;NvSIPLCapStructs.h</title>
<path fill="none" stroke="black" d="M1288.18,-439.82C1307.46,-439.82 1327.04,-439.82 1345.87,-439.82"/>
<polygon fill="black" stroke="black" points="1345.65,-443.32 1355.65,-439.82 1345.65,-436.32 1345.65,-443.32"/>
</g>
<!-- NvSIPLQuery.hpp -->
<g id="node18" class="node">
<title>NvSIPLQuery.hpp</title>
<ellipse fill="none" stroke="black" cx="110.13" cy="-542.82" rx="100.14" ry="18"/>
<text text-anchor="middle" x="110.13" y="-538.14" font-family="Times,serif" font-size="14.00">NvSIPLQuery.hpp</text>
</g>
<!-- NvSIPLQuery.hpp&#45;&gt;NvSIPLCommon.hpp -->
<g id="edge27" class="edge">
<title>NvSIPLQuery.hpp&#45;&gt;NvSIPLCommon.hpp</title>
<path fill="none" stroke="black" d="M207.92,-547.08C343.64,-552.68 598.2,-561.82 815.27,-561.82 815.27,-561.82 815.27,-561.82 1473.43,-561.82 1668.84,-561.82 1718.93,-529.35 1900.38,-456.82 1941.78,-440.27 1985.66,-414.05 2015.27,-394.91"/>
<polygon fill="black" stroke="black" points="2017.02,-397.94 2023.47,-389.54 2013.19,-392.08 2017.02,-397.94"/>
</g>
<!-- NvSIPLQuery.hpp&#45;&gt;NvSIPLPlatformCfg.hpp -->
<g id="edge28" class="edge">
<title>NvSIPLQuery.hpp&#45;&gt;NvSIPLPlatformCfg.hpp</title>
<path fill="none" stroke="black" d="M187.83,-531.16C315.8,-511.72 572.82,-472.66 714.98,-451.06"/>
<polygon fill="black" stroke="black" points="715.42,-454.53 724.78,-449.57 714.36,-447.61 715.42,-454.53"/>
</g>
</g>
</svg>
